<svg width="25" height="25" viewBox="0 0 25 25" fill="none" xmlns="http://www.w3.org/2000/svg">
<g clip-path="url(#clip0_8_326)">
<path d="M12.8267 11.5C15.0359 11.5 16.8267 9.70914 16.8267 7.5C16.8267 5.29086 15.0359 3.5 12.8267 3.5C10.6176 3.5 8.82672 5.29086 8.82672 7.5C8.82672 9.70914 10.6176 11.5 12.8267 11.5Z" stroke="#939199" stroke-width="1.5" stroke-linecap="round" stroke-linejoin="round"/>
<path d="M6.82672 21.5V19.5C6.82672 18.4391 7.24815 17.4217 7.99829 16.6716C8.74844 15.9214 9.76586 15.5 10.8267 15.5H14.8267C15.8876 15.5 16.905 15.9214 17.6551 16.6716C18.4053 17.4217 18.8267 18.4391 18.8267 19.5V21.5" stroke="#939199" stroke-width="1.5" stroke-linecap="round" stroke-linejoin="round"/>
</g>
<defs>
<clipPath id="clip0_8_326">
<rect width="24" height="24" fill="white" transform="translate(0.826721 0.5)"/>
</clipPath>
</defs>
</svg>
